<svg width="32" height="32" viewBox="0 0 32 32" fill="none" xmlns="http://www.w3.org/2000/svg">
  <!-- Areia dourada -->
  <ellipse cx="16" cy="26" rx="14" ry="5" fill="#F4A460"/>
  
  <!-- Ondas azuis -->
  <path d="M2 24C4 22 6 24 8 22C10 24 12 22 14 24C16 22 18 24 20 22C22 24 24 22 26 24C28 22 30 24 32 22V32H2V24Z" fill="#4A90E2"/>
  
  <!-- Tronco do coqueiro principal (curvado) -->
  <path d="M18 26C18 26 19 22 20 18C21 14 22 10 24 8C25 7 26 7 26 8C26 9 25 10 24 12C23 16 22 20 21 24C20.5 25 19 26 18 26Z" fill="#8B4513"/>
  
  <!-- Tronco do coqueiro menor -->
  <path d="M8 26C8 26 9 24 10 22C11 20 12 18 13 16C13.5 15 14 15 14 16C14 17 13.5 18 13 20C12 22 11 24 10 26C9.5 26 8.5 26 8 26Z" fill="#8B4513"/>
  
  <!-- Folhas do coqueiro principal -->
  <path d="M24 8C24 8 20 6 18 10C16 14 20 16 22 14C23 13 24 10 24 8Z" fill="#32CD32"/>
  <path d="M24 8C24 8 28 6 30 10C32 14 28 16 26 14C25 13 24 10 24 8Z" fill="#228B22"/>
  <path d="M24 8C24 8 26 4 28 6C30 8 28 12 26 10C25 9 24 8 24 8Z" fill="#32CD32"/>
  <path d="M24 8C24 8 22 4 20 6C18 8 20 12 22 10C23 9 24 8 24 8Z" fill="#228B22"/>
  <path d="M24 8C24 8 24 4 26 5C28 6 27 10 25 9C24.5 8.5 24 8 24 8Z" fill="#32CD32"/>
  
  <!-- Folhas do coqueiro menor -->
  <path d="M13 16C13 16 10 15 9 17C8 19 11 20 12 18C12.5 17 13 16 13 16Z" fill="#32CD32"/>
  <path d="M13 16C13 16 16 15 17 17C18 19 15 20 14 18C13.5 17 13 16 13 16Z" fill="#228B22"/>
  <path d="M13 16C13 16 14 13 15 14C16 15 14 18 13 17C13 16.5 13 16 13 16Z" fill="#32CD32"/>
  <path d="M13 16C13 16 12 13 11 14C10 15 12 18 13 17C13 16.5 13 16 13 16Z" fill="#228B22"/>
  
  <!-- Cocos -->
  <circle cx="24" cy="10" r="1.5" fill="#8B4513"/>
  <circle cx="13" cy="17" r="1" fill="#8B4513"/>
</svg>
